# xmcd CD database file
#
# Track frame offsets:
#	150
#	12097
#	23033
#	34055
#	46286
#	58867
#	70761
#	79920
#	89992
#	101276
#	112016
#	125700
#	142296
#	152822
#	164336
#	173244
#	184440
#	197511
#	207363
#	217493
#	230997
#	241419
#	253160
#	260830
#	271817
#	282384
#	298480
#	311986
#	326738
#	337666
#
# Disc length: 4676 seconds
#
# Revision: 7
# Processed by: cddbd v1.5.2PL0 Copyright (c) Steve Scherf et al.
# Submitted via: CDex 2.21
#
DISCID=ea12421e
DTITLE=Brenda Lee - 30 Essentials of Brenda Lee
DYEAR=2014
DGENRE=Country
TTITLE0=I'm Sorry
TTITLE1=Sweet Nothin's
TTITLE2=Blueberry Hill
TTITLE3=Crazy Talk
TTITLE4=Jambalaya (On The Bayou)
TTITLE5=Break It to Me Gently
TTITLE6=Here Comes That Feeling
TTITLE7=Side By Side
TTITLE8=Everybody Loves Me But You
TTITLE9=Anybody but Me
TTITLE10=Eventually
TTITLE11=Georgia On My Mind
TTITLE12=Dum Dum
TTITLE13=Talkin' 'Bout You
TTITLE14=Dynamite
TTITLE15=Heart In Hand
TTITLE16=St. Louis Blues
TTITLE17=When My Dreamboat Comes Home
TTITLE18=My Baby Likes Western Guys
TTITLE19=All the Way
TTITLE20=Speak To Me Pretty
TTITLE21=Be My Love Again
TTITLE22=Pretty Baby
TTITLE23=Medley-Fool no. 1  La premiere
TTITLE24=It Started All over Again
TTITLE25=You Can Depend On Me
TTITLE26=Weep No More My Baby
TTITLE27=On the Sunny Side of the Street
TTITLE28=That's All You Gotta Do
TTITLE29=Only You (And You Alone)
EXTD=YEAR: 2014
EXTT0=
EXTT1=
EXTT2=
EXTT3=
EXTT4=
EXTT5=
EXTT6=
EXTT7=
EXTT8=
EXTT9=
EXTT10=
EXTT11=
EXTT12=
EXTT13=
EXTT14=
EXTT15=
EXTT16=
EXTT17=
EXTT18=
EXTT19=
EXTT20=
EXTT21=
EXTT22=
EXTT23=
EXTT24=
EXTT25=
EXTT26=
EXTT27=
EXTT28=
EXTT29=
PLAYORDER=
